<?xml version="1.0" encoding="utf-8"?>
<!-- Generator: Adobe Illustrator 27.7.0, SVG Export Plug-In . SVG Version: 6.00 Build 0)  -->
<svg version="1.1" id="Capa_1" xmlns="http://www.w3.org/2000/svg" xmlns:xlink="http://www.w3.org/1999/xlink" x="0px" y="0px"
	 viewBox="0 0 841.9 595.3" style="enable-background:new 0 0 841.9 595.3;" xml:space="preserve">
<style type="text/css">
	.st0{clip-path:url(#SVGID_00000178194314745879667350000013085246609755938486_);}
	
		.st1{clip-path:url(#SVGID_00000033338777162458563130000003724700691467705761_);fill:url(#SVGID_00000060727028023250235610000010419246686207882158_);}
</style>
<g>
	<defs>
		<rect id="SVGID_1_" x="329.9" y="29.3" width="172.1" height="524.4"/>
	</defs>
	<clipPath id="SVGID_00000114031414622082925970000011635875421600097204_">
		<use xlink:href="#SVGID_1_"  style="overflow:visible;"/>
	</clipPath>
	<g style="clip-path:url(#SVGID_00000114031414622082925970000011635875421600097204_);">
		<defs>
			<path id="SVGID_00000135650494405977521410000012259824581844320142_" d="M698.9,534.2h70.3V244.9h-70.3V534.2z M1056.6,534.2
				h70.3V244.9h-70.3V534.2z M784.2,389.9c0,81.2,65.8,147.1,147.1,147.1c44,0,83.4-19.4,110.4-50.1l-41.9-49.6
				c-15,21.7-40.1,35.9-68.4,35.9c-46,0-83.3-37.3-83.3-83.3c0-46,37.3-83.3,83.3-83.3c28.4,0,53.4,14.2,68.4,35.9l41.9-49.6
				c-27-30.6-66.3-50.1-110.4-50.1C850,242.8,784.2,308.6,784.2,389.9 M1600.2,389.9c0,22.7,5.3,44.1,14.5,63.3l58.7-101.7
				c13.9-26.7,41.7-44.9,73.9-44.9c46,0,83.3,37.3,83.3,83.3c0,46-37.3,83.3-83.3,83.3c-25.2,0-47.7-11.2-63-28.9l-32.9,56.9
				c25.8,22.2,59.2,35.7,95.9,35.7c81.2,0,147.1-65.8,147.1-147.1c0-81.2-65.8-147.1-147.1-147.1
				C1666,242.8,1600.2,308.6,1600.2,389.9 M585.5,277.9v-32.9h-70.3v289.3h70.3V392c0-47.6,28.1-82.7,75.7-83.3
				c8.3,0,15.8,1.1,22.7,3.2v-68.8c-6.5-0.6-13.2-0.9-20.3-0.9C616.6,242.2,589.9,261.7,585.5,277.9 M696.2,162.2
				c0,22.7,15.7,38.9,37.8,38.9c22.2,0,37.9-16.2,37.9-38.9c0-22.7-15.7-38.9-37.9-38.9C711.9,123.3,696.2,139.5,696.2,162.2
				 M878.2,162.2c0,22.7,15.7,38.9,37.8,38.9c22.2,0,37.9-16.2,37.9-38.9c0-22.7-15.7-38.9-37.9-38.9
				C893.9,123.3,878.2,139.5,878.2,162.2 M1053.9,162.2c0,22.7,15.7,38.9,37.8,38.9c22.2,0,37.9-16.2,37.9-38.9
				c0-22.7-15.7-38.9-37.9-38.9C1069.5,123.3,1053.9,139.5,1053.9,162.2 M1165,53.5v480.7h70.3v-80l47-49l14,38.2
				c24.6,60.9,40.4,90.8,83.6,90.8c1,0,2-0.1,3.1-0.1h58.9v-64h-15.5c0,0-20-0.2-28.7-0.2c-15.7,0-24.3-10.5-31.7-32.4l-33.1-85
				l102.5-106.9h-81.1l-119,120v-312H1165z M1465,53.5v393.2c0,60.6,35.1,90.8,78.4,90.8c1,0,2-0.1,3.1-0.1h58.9v-64h-15.5
				c0,0-20-0.2-28.7-0.2c-15.7,0-26.5-10.3-26.5-32.4V53.5H1465z M338.7,50.2V369v13.8v60.6c0,60.6,35.1,90.8,78.4,90.8
				c1,0,2-0.1,3.1-0.1h71.6v-64h-28.1c0,0-19.6-0.2-28.2-0.2c-15.7,0-26.5-10.3-26.5-32.4v-54.6h0.1v-74.6h82.7v-66.5H409V50.2
				H338.7z"/>
		</defs>
		<clipPath id="SVGID_00000120550283641123486950000001993045342980718006_">
			<use xlink:href="#SVGID_00000135650494405977521410000012259824581844320142_"  style="overflow:visible;"/>
		</clipPath>
		
			<linearGradient id="SVGID_00000113348939643346914180000000046646970945009599_" gradientUnits="userSpaceOnUse" x1="-11.4769" y1="540.1053" x2="-9.2713" y2="540.1053" gradientTransform="matrix(0 220.9138 220.9138 0 -118200.2188 2585.6328)">
			<stop  offset="0" style="stop-color:#FF00FF"/>
			<stop  offset="9.354647e-02" style="stop-color:#FF05F9"/>
			<stop  offset="0.2185" style="stop-color:#FF15E8"/>
			<stop  offset="0.3612" style="stop-color:#FF2ECC"/>
			<stop  offset="0.5172" style="stop-color:#FF51A5"/>
			<stop  offset="0.6839" style="stop-color:#FF7F73"/>
			<stop  offset="0.8567" style="stop-color:#FFB537"/>
			<stop  offset="1" style="stop-color:#FFE700"/>
		</linearGradient>
		
			<rect x="338.7" y="50.2" style="clip-path:url(#SVGID_00000120550283641123486950000001993045342980718006_);fill:url(#SVGID_00000113348939643346914180000000046646970945009599_);" width="1555.7" height="487.2"/>
	</g>
</g>
</svg>
